<?xml version="1.0" encoding="UTF-8"?>
<svg
  viewBox="0 0 50 47"
  fill="none"
  xmlns="http://www.w3.org/2000/svg"
>

  <!-- Background -->
  <rect x="0" y="0" width="50" height="47" fill="#262626" />

  <!-- Left stack of books -->
  <rect x="2" y="2" width="13" height="3" fill="white" />
  <rect x="6" y="7" width="9" height="3" fill="white" />
  <rect x="2" y="12" width="13" height="3" fill="white" />
  <rect x="2" y="17" width="13" height="3" fill="white" />
  <rect x="2" y="22" width="4" height="3" fill="white" />
  <rect x="2" y="27" width="13" height="3" fill="white" />
  <rect x="2" y="32" width="13" height="3" fill="white" />
  <rect x="2" y="37" width="3" height="3" fill="white" />
  <rect x="8" y="37" width="7" height="3" fill="white" />
  <rect x="2" y="42" width="13" height="3" fill="white" />

  <!-- Middle book -->
  <rect x="17" y="17" width="16" height="3" fill="white" />
  <rect x="21" y="22" width="12" height="3" fill="white" />
  <rect x="17" y="27" width="16" height="3" fill="white" />

  <!-- Right stack of books -->
  <rect x="35" y="2" width="13" height="3" fill="white" />
  <rect x="35" y="7" width="13" height="3" fill="white" />
  <rect x="35" y="12" width="10" height="3" fill="white" />
  <rect x="35" y="17" width="13" height="3" fill="white" />
  <rect x="35" y="22" width="13" height="3" fill="white" />
  <rect x="39" y="27" width="9" height="3" fill="white" />
  <rect x="35" y="32" width="13" height="3" fill="white" />
  <rect x="35" y="37" width="5" height="3" fill="white" />
  <rect x="43" y="37" width="5" height="3" fill="white" />
  <rect x="35" y="42" width="13" height="3" fill="white" />
</svg>